<svg width="16" height="16" viewBox="0 0 16 16" fill="none" xmlns="http://www.w3.org/2000/svg">
<path fill-rule="evenodd" clip-rule="evenodd" d="M8.00004 13C4.44417 13 2.86745 14.8915 2.28091 15.6247C1.9359 16.056 1.3066 16.1259 0.875342 15.7809C0.44408 15.4359 0.374158 14.8066 0.719168 14.3753C1.46595 13.4418 3.5559 11 8.00004 11C12.4442 11 14.5341 13.4418 15.2809 14.3753C15.6259 14.8066 15.556 15.4359 15.1247 15.7809C14.6935 16.1259 14.0642 16.056 13.7192 15.6247C13.1326 14.8915 11.5559 13 8.00004 13Z" fill="#707F8D"/>
<path fill-rule="evenodd" clip-rule="evenodd" d="M8 8C9.65685 8 11 6.65685 11 5C11 3.34315 9.65685 2 8 2C6.34315 2 5 3.34315 5 5C5 6.65685 6.34315 8 8 8ZM8 10C10.7614 10 13 7.76142 13 5C13 2.23858 10.7614 0 8 0C5.23858 0 3 2.23858 3 5C3 7.76142 5.23858 10 8 10Z" fill="#707F8D"/>
</svg>
