<svg width="20" height="24" viewBox="0 0 20 24" fill="none" xmlns="http://www.w3.org/2000/svg">
<path fill-rule="evenodd" clip-rule="evenodd" d="M0 8C0 4.22876 0 2.34315 1.17157 1.17157C2.34315 0 4.22876 0 8 0H16C17.8856 0 18.8284 0 19.4142 0.585786C20 1.17157 20 2.11438 20 4V20C20 21.8856 20 22.8284 19.4142 23.4142C18.8284 24 17.8856 24 16 24H8C4.22876 24 2.34315 24 1.17157 22.8284C0 21.6569 0 19.7712 0 16V8ZM6 22H16C16.9428 22 17.4142 22 17.7071 21.7071C18 21.4142 18 20.9428 18 20H2.05075C2.11469 20.6501 2.2592 21.0876 2.58579 21.4142C3.17157 22 4.11438 22 6 22ZM16 2H6C4.11438 2 3.17157 2 2.58579 2.58579C2 3.17157 2 4.11438 2 6V18H18V4C18 3.05719 18 2.58579 17.7071 2.29289C17.4142 2 16.9428 2 16 2Z" fill="#135AFF"/>
<path d="M5 6C5 5.44772 5.44772 5 6 5H14C14.5523 5 15 5.44772 15 6C15 6.55228 14.5523 7 14 7H6C5.44772 7 5 6.55228 5 6Z" fill="#135AFF"/>
<path d="M7 11C7 10.4477 7.44772 10 8 10H12C12.5523 10 13 10.4477 13 11C13 11.5523 12.5523 12 12 12H8C7.44772 12 7 11.5523 7 11Z" fill="#135AFF"/>
</svg>
