<svg width="24" height="24" viewBox="0 0 24 24" fill="none" xmlns="http://www.w3.org/2000/svg">
<path fill-rule="evenodd" clip-rule="evenodd" d="M4 18C4 19.8856 4 20.8284 4.58579 21.4142C5.17157 22 6.11438 22 8 22H16C17.8856 22 18.8284 22 19.4142 21.4142C20 20.8284 20 19.8856 20 18V6C20 4.11438 20 3.17157 19.4142 2.58579C18.8284 2 17.8856 2 16 2H12.4853C11.6678 2 11.259 2 10.8915 2.15224C10.5239 2.30448 10.2349 2.59351 9.65685 3.17157L5.17157 7.65685C4.59351 8.23491 4.30448 8.52394 4.15224 8.89149C4 9.25903 4 9.66778 4 10.4853V18ZM2 11.3137C2 9.67871 2 8.86121 2.30448 8.12612C2.60896 7.39104 3.18702 6.81298 4.34314 5.65686L7.65685 2.34315C8.81298 1.18702 9.39104 0.608964 10.1261 0.304482C10.8612 0 11.6787 0 13.3137 0H14C17.7712 0 19.6569 0 20.8284 1.17157C22 2.34315 22 4.22876 22 8V16C22 19.7712 22 21.6569 20.8284 22.8284C19.6569 24 17.7712 24 14 24H10C6.22876 24 4.34315 24 3.17157 22.8284C2 21.6569 2 19.7712 2 16V11.3137Z" fill="#135AFF"/>
<path d="M7 17C7 16.4477 7.44772 16 8 16H16C16.5523 16 17 16.4477 17 17C17 17.5523 16.5523 18 16 18H8C7.44772 18 7 17.5523 7 17Z" fill="#135AFF"/>
<path d="M7 12C7 11.4477 7.44772 11 8 11H16C16.5523 11 17 11.4477 17 12C17 12.5523 16.5523 13 16 13H8C7.44772 13 7 12.5523 7 12Z" fill="#135AFF"/>
<path d="M11 7C11 6.44772 11.4477 6 12 6H16C16.5523 6 17 6.44772 17 7C17 7.55228 16.5523 8 16 8H12C11.4477 8 11 7.55228 11 7Z" fill="#135AFF"/>
</svg>
