<svg width="134" height="28" viewBox="0 0 134 28" fill="none" xmlns="http://www.w3.org/2000/svg">
<path d="M111 28V0H115.334V12.168H129.652V0H134V28H129.652V15.791H115.334V28H111Z" fill="currentColor"/>
<path d="M78.5016 10C76.0163 10 74.0016 12.2386 74.0016 15H83.0016C83.0016 12.2386 80.9868 10 78.5016 10Z" fill="currentColor"/>
<path d="M91.499 10C89.0137 10 86.999 12.2386 86.999 15H95.999C95.999 12.2386 93.9842 10 91.499 10Z" fill="currentColor"/>
<path fill-rule="evenodd" clip-rule="evenodd" d="M72.4856 20.1264C73.4423 20.8851 74 22.0393 74 23.2604V23.5351L77.5619 23.1426C78.0478 23.0891 78.5394 23.1251 79.0122 23.2487C80.8546 23.7307 82.8728 24 85 24C89.8028 24 93.9793 22.6308 96.8483 20.6226C99.7299 18.6054 101 16.2025 101 14C101 11.7975 99.7299 9.39455 96.8483 7.37743C93.9793 5.36916 89.8028 4 85 4C80.1972 4 76.0207 5.36916 73.1517 7.37743C70.2701 9.39455 69 11.7975 69 14C69 16.0306 70.0689 18.2097 72.4856 20.1264ZM70 28V25.1933C70 23.9722 69.4185 22.8407 68.5587 21.9737C66.315 19.711 65 16.963 65 14C65 6.26801 73.9543 0 85 0C96.0457 0 105 6.26801 105 14C105 21.732 96.0457 28 85 28C83.0709 28 81.2055 27.8088 79.4405 27.452C78.4823 27.2583 77.5018 27.1734 76.5301 27.2805L70 28Z" fill="currentColor"/>
<path d="M36 0H40.4428V20.5625H40.7187L55.8475 0H60V28H55.5136V7.46484H55.2378L40.1379 28H36V0Z" fill="currentColor"/>
<path d="M0 0H5.41386L14.8268 21.7656H15.1732L24.5861 0H30V28H25.7555V7.73828H25.4812L16.7613 27.959H13.2387L4.51877 7.72461H4.24447V28H0V0Z" fill="currentColor"/>
</svg>
