<svg width="80" height="56" viewBox="0 0 80 56" fill="none" xmlns="http://www.w3.org/2000/svg">
<path d="M27 20C22.0294 20 18 24.4772 18 30H36C36 24.4772 31.9706 20 27 20Z" fill="currentColor"/>
<path d="M53 20C48.0294 20 44 24.4772 44 30H62C62 24.4772 57.9706 20 53 20Z" fill="currentColor"/>
<path fill-rule="evenodd" clip-rule="evenodd" d="M14.9711 40.2528C16.8845 41.7703 18 44.0786 18 46.5208V47.0701L25.1239 46.2852C26.0956 46.1782 27.0787 46.2501 28.0245 46.4975C31.7092 47.4613 35.7457 48 40 48C49.6056 48 57.9586 45.2617 63.6966 41.2451C69.4598 37.2109 72 32.405 72 28C72 23.595 69.4598 18.7891 63.6966 14.7549C57.9586 10.7383 49.6056 8 40 8C30.3944 8 22.0414 10.7383 16.3034 14.7549C10.5402 18.7891 8 23.595 8 28C8 32.0612 10.1377 36.4194 14.9711 40.2528ZM10 56V48.4537C10 47.2326 9.43152 46.0893 8.5201 45.2767C3.18284 40.5181 0 34.5192 0 28C0 12.536 17.9086 0 40 0C62.0914 0 80 12.536 80 28C80 43.464 62.0914 56 40 56C35.6109 56 31.3869 55.5052 27.4357 54.5908C26.4833 54.3704 25.5018 54.292 24.5301 54.3991L10 56Z" fill="currentColor"/>
</svg>
