<svg width="16" height="16" viewBox="0 0 16 16" fill="none" xmlns="http://www.w3.org/2000/svg">
<path fill-rule="evenodd" clip-rule="evenodd" d="M4 15C2.11438 15 1.17157 15 0.585786 14.4142C0 13.8284 0 12.8856 0 11V5C0 3.11438 0 2.17157 0.585786 1.58579C1.17157 1 2.11438 1 4 1H12C13.8856 1 14.8284 1 15.4142 1.58579C16 2.17157 16 3.11438 16 5V11C16 12.8856 16 13.8284 15.4142 14.4142C14.8284 15 13.8856 15 12 15H4ZM11.9992 3H3.99918C3.40767 3 3.00172 3 2.70898 3.07233L7.382 6.74398C7.74461 7.02889 8.25503 7.02889 8.61764 6.74398L13.2903 3.07257C12.9975 3 12.5913 3 11.9992 3ZM12 12.9966H4C3.05719 12.9966 2.58579 12.9966 2.29289 12.7037C2 12.4108 2 11.9394 2 10.9966V5.05469L6.14717 8.31318C7.235 9.16791 8.76627 9.1679 9.8541 8.31318L14 5.05568V10.9966C14 11.9394 14 12.4108 13.7071 12.7037C13.4142 12.9966 12.9428 12.9966 12 12.9966Z" fill="white"/>
</svg>
