<svg width="40" height="28" viewBox="0 0 40 28" fill="none" xmlns="http://www.w3.org/2000/svg">
<path fill-rule="evenodd" clip-rule="evenodd" d="M40 14C40 21.732 31.0457 28 20 28C16.3015 28 12.8374 27.2972 9.86549 26.0721L6 28V23.998C2.29728 21.4571 0 17.9164 0 14C0 6.26801 8.9543 0 20 0C31.0457 0 40 6.26801 40 14ZM35 14C35 15.7866 33.972 17.9153 31.2748 19.8033C28.5934 21.6803 24.6228 23 20 23C15.3772 23 11.4066 21.6803 8.72518 19.8033C6.028 17.9153 5 15.7866 5 14C5 12.2134 6.028 10.0847 8.72518 8.19666C11.4066 6.3197 15.3772 5 20 5C24.6228 5 28.5934 6.3197 31.2748 8.19666C33.972 10.0847 35 12.2134 35 14Z" fill="currentColor"/>
<path d="M26.1225 10.2666C23.8682 10.2666 22.0408 12.3559 22.0408 14.9333H30.2041C30.2041 12.3559 28.3767 10.2666 26.1225 10.2666Z" fill="currentColor"/>
<path d="M12.2449 10.2666C9.99068 10.2666 8.16327 12.3559 8.16327 14.9333H16.3265C16.3265 12.3559 14.4991 10.2666 12.2449 10.2666Z" fill="currentColor"/>
</svg>
