<svg width="125" height="10" viewBox="0 0 125 10" fill="none" xmlns="http://www.w3.org/2000/svg">
<path d="M0.880682 0.727273H1.93182L4.40341 6.7642H4.48864L6.96023 0.727273H8.01136V8H7.1875V2.47443H7.11648L4.84375 8H4.0483L1.77557 2.47443H1.70455V8H0.880682V0.727273ZM11.9505 8.11364C11.4249 8.11364 10.9715 7.99763 10.5904 7.76562C10.2116 7.53125 9.91921 7.20455 9.71325 6.78551C9.50965 6.36411 9.40785 5.87405 9.40785 5.31534C9.40785 4.75663 9.50965 4.2642 9.71325 3.83807C9.91921 3.40956 10.2057 3.07576 10.5726 2.83665C10.9419 2.59517 11.3728 2.47443 11.8652 2.47443C12.1493 2.47443 12.4299 2.52178 12.7069 2.61648C12.9838 2.71117 13.236 2.86506 13.4632 3.07812C13.6905 3.28883 13.8716 3.56818 14.0066 3.91619C14.1415 4.2642 14.209 4.69271 14.209 5.2017V5.55682H10.0044V4.83239H13.3567C13.3567 4.52462 13.2952 4.25 13.1721 4.00852C13.0513 3.76705 12.8785 3.57647 12.6536 3.43679C12.431 3.29711 12.1683 3.22727 11.8652 3.22727C11.5314 3.22727 11.2426 3.31013 10.9988 3.47585C10.7573 3.6392 10.5714 3.85227 10.4412 4.11506C10.311 4.37784 10.2459 4.65956 10.2459 4.96023V5.44318C10.2459 5.85511 10.3169 6.20431 10.459 6.49077C10.6034 6.77486 10.8034 6.99148 11.0591 7.14062C11.3148 7.28741 11.6119 7.3608 11.9505 7.3608C12.1706 7.3608 12.3695 7.33002 12.5471 7.26847C12.727 7.20455 12.882 7.10985 13.0123 6.98438C13.1425 6.85653 13.2431 6.69792 13.3141 6.50852L14.1238 6.7358C14.0385 7.01042 13.8953 7.25189 13.6941 7.46023C13.4928 7.66619 13.2443 7.82718 12.9483 7.94318C12.6524 8.05682 12.3198 8.11364 11.9505 8.11364ZM19.1344 4.8892V5.67045H16.123V4.8892H19.1344ZM16.3219 2.54545V8H15.4838V2.54545H16.3219ZM19.7736 2.54545V8H18.9355V2.54545H19.7736ZM23.5911 8.11364C23.0655 8.11364 22.6122 7.99763 22.231 7.76562C21.8522 7.53125 21.5598 7.20455 21.3539 6.78551C21.1503 6.36411 21.0485 5.87405 21.0485 5.31534C21.0485 4.75663 21.1503 4.2642 21.3539 3.83807C21.5598 3.40956 21.8463 3.07576 22.2132 2.83665C22.5826 2.59517 23.0134 2.47443 23.5059 2.47443C23.79 2.47443 24.0705 2.52178 24.3475 2.61648C24.6245 2.71117 24.8766 2.86506 25.1039 3.07812C25.3311 3.28883 25.5123 3.56818 25.6472 3.91619C25.7821 4.2642 25.8496 4.69271 25.8496 5.2017V5.55682H21.6451V4.83239H24.9973C24.9973 4.52462 24.9358 4.25 24.8127 4.00852C24.6919 3.76705 24.5191 3.57647 24.2942 3.43679C24.0717 3.29711 23.8089 3.22727 23.5059 3.22727C23.1721 3.22727 22.8832 3.31013 22.6394 3.47585C22.3979 3.6392 22.2121 3.85227 22.0819 4.11506C21.9516 4.37784 21.8865 4.65956 21.8865 4.96023V5.44318C21.8865 5.85511 21.9576 6.20431 22.0996 6.49077C22.244 6.77486 22.4441 6.99148 22.6998 7.14062C22.9554 7.28741 23.2525 7.3608 23.5911 7.3608C23.8113 7.3608 24.0101 7.33002 24.1877 7.26847C24.3676 7.20455 24.5227 7.10985 24.6529 6.98438C24.7831 6.85653 24.8837 6.69792 24.9547 6.50852L25.7644 6.7358C25.6792 7.01042 25.5359 7.25189 25.3347 7.46023C25.1335 7.66619 24.8849 7.82718 24.589 7.94318C24.293 8.05682 23.9604 8.11364 23.5911 8.11364ZM26.5421 9.5625V7.21875H26.9966C27.1079 7.10275 27.2038 6.97727 27.2843 6.84233C27.3648 6.70739 27.4346 6.54759 27.4938 6.36293C27.5553 6.1759 27.6074 5.94863 27.65 5.68111C27.6926 5.41122 27.7305 5.0857 27.7637 4.70455L27.9483 2.54545H31.4142V7.21875H32.2523V9.5625H31.4142V8H27.3801V9.5625H26.5421ZM27.9483 7.21875H30.5762V3.3267H28.7296L28.5875 4.70455C28.5283 5.27509 28.455 5.77344 28.3674 6.19957C28.2798 6.62571 28.1401 6.96544 27.9483 7.21875ZM33.0238 8L35.2397 5.23011L33.0522 2.54545H34.0465L35.8647 4.875H36.3192V2.54545H37.1573V4.875H37.5977L39.4158 2.54545H40.4102L38.2369 5.23011L40.4386 8H39.43L37.5835 5.65625H37.1573V8H36.3192V5.65625H35.8931L34.0323 8H33.0238ZM44.6191 6.86364L46.5225 2.54545H47.318L44.96 8H44.2782L41.9629 2.54545H42.7441L44.6191 6.86364ZM42.4743 2.54545V8H41.6362V2.54545H42.4743ZM46.764 8V2.54545H47.6021V8H46.764ZM51.4231 8.11364C50.8975 8.11364 50.4442 7.99763 50.063 7.76562C49.6842 7.53125 49.3919 7.20455 49.1859 6.78551C48.9823 6.36411 48.8805 5.87405 48.8805 5.31534C48.8805 4.75663 48.9823 4.2642 49.1859 3.83807C49.3919 3.40956 49.6783 3.07576 50.0453 2.83665C50.4146 2.59517 50.8455 2.47443 51.3379 2.47443C51.622 2.47443 51.9025 2.52178 52.1795 2.61648C52.4565 2.71117 52.7086 2.86506 52.9359 3.07812C53.1632 3.28883 53.3443 3.56818 53.4792 3.91619C53.6142 4.2642 53.6816 4.69271 53.6816 5.2017V5.55682H49.4771V4.83239H52.8294C52.8294 4.52462 52.7678 4.25 52.6447 4.00852C52.524 3.76705 52.3511 3.57647 52.1262 3.43679C51.9037 3.29711 51.6409 3.22727 51.3379 3.22727C51.0041 3.22727 50.7153 3.31013 50.4714 3.47585C50.2299 3.6392 50.0441 3.85227 49.9139 4.11506C49.7837 4.37784 49.7186 4.65956 49.7186 4.96023V5.44318C49.7186 5.85511 49.7896 6.20431 49.9316 6.49077C50.0761 6.77486 50.2761 6.99148 50.5318 7.14062C50.7875 7.28741 51.0846 7.3608 51.4231 7.3608C51.6433 7.3608 51.8422 7.33002 52.0197 7.26847C52.1996 7.20455 52.3547 7.10985 52.4849 6.98438C52.6151 6.85653 52.7157 6.69792 52.7868 6.50852L53.5964 6.7358C53.5112 7.01042 53.368 7.25189 53.1667 7.46023C52.9655 7.66619 52.7169 7.82718 52.421 7.94318C52.1251 8.05682 51.7924 8.11364 51.4231 8.11364ZM58.6071 4.8892V5.67045H55.5957V4.8892H58.6071ZM55.7946 2.54545V8H54.9565V2.54545H55.7946ZM59.2463 2.54545V8H58.4082V2.54545H59.2463ZM60.0346 3.3267V2.54545H64.4664V3.3267H62.6767V8H61.8386V3.3267H60.0346ZM68.5307 4.49148V5.27273H65.3489V4.49148H68.5307ZM70.0053 8V2.54545H70.8434V4.91761H71.3974L73.3576 2.54545H74.4371L72.2354 5.1733L74.4656 8H73.386L71.5962 5.69886H70.8434V8H70.0053ZM77.3677 8.11364C76.8753 8.11364 76.4432 7.99645 76.0716 7.76207C75.7022 7.5277 75.4134 7.19981 75.2051 6.77841C74.9991 6.35701 74.8961 5.86458 74.8961 5.30114C74.8961 4.73295 74.9991 4.23698 75.2051 3.81321C75.4134 3.38944 75.7022 3.06037 76.0716 2.82599C76.4432 2.59162 76.8753 2.47443 77.3677 2.47443C77.8601 2.47443 78.291 2.59162 78.6603 2.82599C79.032 3.06037 79.3208 3.38944 79.5268 3.81321C79.7351 4.23698 79.8393 4.73295 79.8393 5.30114C79.8393 5.86458 79.7351 6.35701 79.5268 6.77841C79.3208 7.19981 79.032 7.5277 78.6603 7.76207C78.291 7.99645 77.8601 8.11364 77.3677 8.11364ZM77.3677 7.3608C77.7418 7.3608 78.0495 7.26491 78.291 7.07315C78.5325 6.88139 78.7112 6.62926 78.8272 6.31676C78.9432 6.00426 79.0012 5.66572 79.0012 5.30114C79.0012 4.93655 78.9432 4.59683 78.8272 4.28196C78.7112 3.96709 78.5325 3.71259 78.291 3.51847C78.0495 3.32434 77.7418 3.22727 77.3677 3.22727C76.9937 3.22727 76.6859 3.32434 76.4444 3.51847C76.2029 3.71259 76.0242 3.96709 75.9082 4.28196C75.7922 4.59683 75.7342 4.93655 75.7342 5.30114C75.7342 5.66572 75.7922 6.00426 75.9082 6.31676C76.0242 6.62926 76.2029 6.88139 76.4444 7.07315C76.6859 7.26491 76.9937 7.3608 77.3677 7.3608ZM84.7692 4.8892V5.67045H81.7578V4.8892H84.7692ZM81.9567 2.54545V8H81.1186V2.54545H81.9567ZM85.4084 2.54545V8H84.5703V2.54545H85.4084ZM89.1548 8.11364C88.6435 8.11364 88.2031 7.9929 87.8338 7.75142C87.4645 7.50994 87.1804 7.17732 86.9815 6.75355C86.7827 6.32978 86.6832 5.84564 86.6832 5.30114C86.6832 4.74716 86.785 4.25829 86.9886 3.83452C87.1946 3.40838 87.4811 3.07576 87.848 2.83665C88.2173 2.59517 88.6482 2.47443 89.1406 2.47443C89.5241 2.47443 89.8698 2.54545 90.1776 2.6875C90.4853 2.82955 90.7375 3.02841 90.9339 3.28409C91.1304 3.53977 91.2524 3.83807 91.2997 4.17898H90.4616C90.3977 3.9304 90.2557 3.71023 90.0355 3.51847C89.8177 3.32434 89.5241 3.22727 89.1548 3.22727C88.8281 3.22727 88.5417 3.3125 88.2955 3.48295C88.0516 3.65104 87.861 3.88897 87.7237 4.19673C87.5888 4.50213 87.5213 4.8608 87.5213 5.27273C87.5213 5.69413 87.5876 6.06108 87.7202 6.37358C87.8551 6.68608 88.0445 6.92874 88.2884 7.10156C88.5346 7.27438 88.8234 7.3608 89.1548 7.3608C89.3726 7.3608 89.5703 7.32292 89.7479 7.24716C89.9254 7.1714 90.0758 7.0625 90.1989 6.92045C90.322 6.77841 90.4096 6.60795 90.4616 6.40909H91.2997C91.2524 6.73106 91.1352 7.02107 90.9482 7.27912C90.7635 7.5348 90.5185 7.7384 90.2131 7.88991C89.91 8.03906 89.5573 8.11364 89.1548 8.11364ZM94.13 8.12784C93.7843 8.12784 93.4706 8.06274 93.1889 7.93253C92.9072 7.79995 92.6835 7.60938 92.5178 7.3608C92.352 7.10985 92.2692 6.80682 92.2692 6.4517C92.2692 6.1392 92.3307 5.88589 92.4538 5.69176C92.5769 5.49527 92.7415 5.34138 92.9474 5.23011C93.1534 5.11884 93.3807 5.03598 93.6293 4.98153C93.8802 4.92472 94.1323 4.87973 94.3857 4.84659C94.7171 4.80398 94.9858 4.77202 95.1918 4.75071C95.4001 4.72704 95.5516 4.68797 95.6463 4.63352C95.7434 4.57907 95.7919 4.48437 95.7919 4.34943V4.32102C95.7919 3.97064 95.696 3.69839 95.5043 3.50426C95.3149 3.31013 95.0272 3.21307 94.6413 3.21307C94.2412 3.21307 93.9276 3.30066 93.7003 3.47585C93.473 3.65104 93.3132 3.83807 93.2209 4.03693L92.4254 3.75284C92.5675 3.4214 92.7569 3.16335 92.9936 2.97869C93.2327 2.79167 93.4931 2.66146 93.7749 2.58807C94.0589 2.51231 94.3383 2.47443 94.6129 2.47443C94.7881 2.47443 94.9893 2.49574 95.2166 2.53835C95.4463 2.5786 95.6676 2.66264 95.8807 2.79048C96.0961 2.91832 96.2749 3.11127 96.4169 3.36932C96.5589 3.62737 96.63 3.97301 96.63 4.40625V8H95.7919V7.26136H95.7493C95.6925 7.37973 95.5978 7.50639 95.4652 7.64134C95.3326 7.77628 95.1563 7.8911 94.9361 7.9858C94.7159 8.08049 94.4472 8.12784 94.13 8.12784ZM94.2578 7.375C94.5893 7.375 94.8686 7.3099 95.0959 7.17969C95.3255 7.04948 95.4983 6.88139 95.6143 6.67543C95.7327 6.46946 95.7919 6.25284 95.7919 6.02557V5.25852C95.7564 5.30114 95.6783 5.3402 95.5575 5.37571C95.4392 5.40885 95.3018 5.43845 95.1456 5.46449C94.9917 5.48816 94.8414 5.50947 94.6946 5.52841C94.5502 5.54498 94.433 5.55919 94.343 5.57102C94.1252 5.59943 93.9216 5.6456 93.7322 5.70952C93.5452 5.77107 93.3937 5.86458 93.2777 5.99006C93.1641 6.11316 93.1072 6.28125 93.1072 6.49432C93.1072 6.78551 93.215 7.00568 93.4304 7.15483C93.6482 7.30161 93.924 7.375 94.2578 7.375ZM97.6767 8V7.21875H97.8755C98.0389 7.21875 98.175 7.18679 98.2839 7.12287C98.3928 7.05658 98.4804 6.94176 98.5467 6.77841C98.6154 6.61269 98.6674 6.38305 98.7029 6.08949C98.7408 5.79356 98.7681 5.41714 98.7846 4.96023L98.8841 2.54545H102.52V8H101.682V3.3267H99.6795L99.5943 5.27273C99.5753 5.72017 99.5351 6.11435 99.4735 6.45526C99.4144 6.7938 99.3232 7.07789 99.2001 7.30753C99.0794 7.53717 98.9184 7.70999 98.7172 7.82599C98.5159 7.942 98.2638 8 97.9608 8H97.6767ZM103.316 3.3267V2.54545H107.748V3.3267H105.958V8H105.12V3.3267H103.316ZM109.808 6.7642L112.436 2.54545H113.402V8H112.564V3.78125L109.95 8H108.97V2.54545H109.808V6.7642ZM118.588 4.8892V5.67045H115.576V4.8892H118.588ZM115.775 2.54545V8H114.937V2.54545H115.775ZM119.227 2.54545V8H118.389V2.54545H119.227ZM124.124 2.54545V3.3267H121.595V8H120.757V2.54545H124.124Z" fill="currentColor"/>
</svg>
