<svg width="40" height="28" viewBox="0 0 40 28" fill="none" xmlns="http://www.w3.org/2000/svg">
<path d="M13.5016 10C11.0163 10 9.00156 12.2386 9.00156 15H18.0016C18.0016 12.2386 15.9868 10 13.5016 10Z" fill="currentColor"/>
<path d="M26.499 10C24.0137 10 21.999 12.2386 21.999 15H30.999C30.999 12.2386 28.9842 10 26.499 10Z" fill="currentColor"/>
<path fill-rule="evenodd" clip-rule="evenodd" d="M7.48556 20.1264C8.44227 20.8851 9 22.0393 9 23.2604V23.5351L12.5619 23.1426C13.0478 23.0891 13.5394 23.1251 14.0122 23.2487C15.8546 23.7307 17.8729 24 20 24C24.8028 24 28.9793 22.6308 31.8483 20.6226C34.7299 18.6054 36 16.2025 36 14C36 11.7975 34.7299 9.39455 31.8483 7.37743C28.9793 5.36916 24.8028 4 20 4C15.1972 4 11.0207 5.36916 8.15171 7.37743C5.27012 9.39455 4 11.7975 4 14C4 16.0306 5.06886 18.2097 7.48556 20.1264ZM5 28V25.1933C5 23.9722 4.41847 22.8407 3.55869 21.9737C1.31497 19.711 0 16.963 0 14C0 6.26801 8.9543 0 20 0C31.0457 0 40 6.26801 40 14C40 21.732 31.0457 28 20 28C18.0709 28 16.2055 27.8088 14.4405 27.452C13.4823 27.2583 12.5018 27.1734 11.5301 27.2805L5 28Z" fill="currentColor"/>
</svg>
